<svg xmlns="http://www.w3.org/2000/svg" xmlns:xlink="http://www.w3.org/1999/xlink" width="200" zoomAndPan="magnify" viewBox="0 0 150 44.999999" height="60" preserveAspectRatio="xMidYMid meet" version="1.0"><defs><g/></defs><g fill="#4b268f" fill-opacity="1"><g transform="translate(-0.00890744, 34.297005)"><g><path d="M 10.96875 -16.6875 C 9.375 -16.6875 8.140625 -16.085938 7.265625 -14.890625 C 6.398438 -13.703125 5.96875 -12.039062 5.96875 -9.90625 C 5.96875 -5.46875 7.632812 -3.25 10.96875 -3.25 C 12.363281 -3.25 14.054688 -3.597656 16.046875 -4.296875 L 16.046875 -0.75 C 14.410156 -0.0703125 12.585938 0.265625 10.578125 0.265625 C 7.679688 0.265625 5.460938 -0.609375 3.921875 -2.359375 C 2.390625 -4.117188 1.625 -6.644531 1.625 -9.9375 C 1.625 -12.007812 2 -13.820312 2.75 -15.375 C 3.507812 -16.9375 4.59375 -18.128906 6 -18.953125 C 7.414062 -19.785156 9.070312 -20.203125 10.96875 -20.203125 C 12.90625 -20.203125 14.847656 -19.734375 16.796875 -18.796875 L 15.4375 -15.375 C 14.695312 -15.726562 13.945312 -16.035156 13.1875 -16.296875 C 12.4375 -16.554688 11.695312 -16.6875 10.96875 -16.6875 Z M 10.96875 -16.6875 "/></g></g></g><g fill="#4b268f" fill-opacity="1"><g transform="translate(17.770666, 34.297005)"><g><path d="M 14.703125 0 L 13.265625 -4.734375 L 6 -4.734375 L 4.546875 0 L 0 0 L 7.03125 -20 L 12.203125 -20 L 19.25 0 Z M 12.25 -8.28125 C 10.914062 -12.582031 10.164062 -15.015625 10 -15.578125 C 9.832031 -16.140625 9.710938 -16.582031 9.640625 -16.90625 C 9.335938 -15.75 8.476562 -12.875 7.0625 -8.28125 Z M 12.25 -8.28125 "/></g></g></g><g fill="#4b268f" fill-opacity="1"><g transform="translate(37.021653, 34.297005)"><g><path d="M 2.5 0 L 2.5 -19.921875 L 6.734375 -19.921875 L 6.734375 -3.484375 L 14.8125 -3.484375 L 14.8125 0 Z M 2.5 0 "/></g></g></g><g fill="#4b268f" fill-opacity="1"><g transform="translate(52.784847, 34.297005)"><g><path d="M 2.5 0 L 2.5 -19.921875 L 6.734375 -19.921875 L 6.734375 -3.484375 L 14.8125 -3.484375 L 14.8125 0 Z M 2.5 0 "/></g></g></g><g fill="#4b268f" fill-opacity="1"><g transform="translate(68.548041, 34.297005)"><g><path d="M 13.984375 0 L 2.5 0 L 2.5 -19.921875 L 13.984375 -19.921875 L 13.984375 -16.453125 L 6.734375 -16.453125 L 6.734375 -12.09375 L 13.46875 -12.09375 L 13.46875 -8.625 L 6.734375 -8.625 L 6.734375 -3.484375 L 13.984375 -3.484375 Z M 13.984375 0 "/></g></g></g><g fill="#4b268f" fill-opacity="1"><g transform="translate(84.174993, 34.297005)"><g><path d="M 6.734375 -11.078125 L 8.09375 -11.078125 C 9.425781 -11.078125 10.410156 -11.296875 11.046875 -11.734375 C 11.679688 -12.179688 12 -12.882812 12 -13.84375 C 12 -14.789062 11.675781 -15.460938 11.03125 -15.859375 C 10.382812 -16.253906 9.378906 -16.453125 8.015625 -16.453125 L 6.734375 -16.453125 Z M 6.734375 -7.640625 L 6.734375 0 L 2.5 0 L 2.5 -19.921875 L 8.3125 -19.921875 C 11.019531 -19.921875 13.019531 -19.425781 14.3125 -18.4375 C 15.613281 -17.457031 16.265625 -15.960938 16.265625 -13.953125 C 16.265625 -12.785156 15.941406 -11.742188 15.296875 -10.828125 C 14.648438 -9.910156 13.738281 -9.195312 12.5625 -8.6875 C 15.5625 -4.207031 17.515625 -1.3125 18.421875 0 L 13.734375 0 L 8.984375 -7.640625 Z M 6.734375 -7.640625 "/></g></g></g><g fill="#4b268f" fill-opacity="1"><g transform="translate(102.594898, 34.297005)"><g><path d="M 10.9375 0 L 6.140625 -15.625 L 6.015625 -15.625 C 6.191406 -12.445312 6.28125 -10.328125 6.28125 -9.265625 L 6.28125 0 L 2.5 0 L 2.5 -19.921875 L 8.25 -19.921875 L 12.96875 -4.6875 L 13.046875 -4.6875 L 18.046875 -19.921875 L 23.8125 -19.921875 L 23.8125 0 L 19.859375 0 L 19.859375 -9.421875 C 19.859375 -9.867188 19.863281 -10.382812 19.875 -10.96875 C 19.894531 -11.550781 19.960938 -13.097656 20.078125 -15.609375 L 19.953125 -15.609375 L 14.8125 0 Z M 10.9375 0 "/></g></g></g><g fill="#4b268f" fill-opacity="1"><g transform="translate(128.903216, 34.297005)"><g><path d="M 18.71875 -19.921875 L 18.71875 -7.03125 C 18.71875 -5.5625 18.390625 -4.269531 17.734375 -3.15625 C 17.078125 -2.050781 16.125 -1.203125 14.875 -0.609375 C 13.632812 -0.0234375 12.164062 0.265625 10.46875 0.265625 C 7.90625 0.265625 5.914062 -0.390625 4.5 -1.703125 C 3.082031 -3.015625 2.375 -4.804688 2.375 -7.078125 L 2.375 -19.921875 L 6.578125 -19.921875 L 6.578125 -7.71875 C 6.578125 -6.1875 6.882812 -5.0625 7.5 -4.34375 C 8.125 -3.625 9.148438 -3.265625 10.578125 -3.265625 C 11.953125 -3.265625 12.953125 -3.625 13.578125 -4.34375 C 14.203125 -5.070312 14.515625 -6.207031 14.515625 -7.75 L 14.515625 -19.921875 Z M 18.71875 -19.921875 "/></g></g></g></svg>