<svg xmlns="http://www.w3.org/2000/svg" xmlns:xlink="http://www.w3.org/1999/xlink" width="200px" zoomAndPan="magnify"
    viewBox="0 0 150 44.999999" height="60" preserveAspectRatio="xMidYMid meet" version="1.0">
    <defs>
        <g id="element"/>
    </defs>
    <path stroke-linecap="butt" transform="matrix(0.75, 0, 0, 0.75, -0.712032, 4.297007)" fill="none"
        stroke-linejoin="miter"
        d="M 15.563961 17.744617 C 13.444169 17.744617 11.803544 18.541492 10.642086 20.130034 C 9.475419 21.723784 8.897294 23.942534 8.897294 26.791493 C 8.897294 32.713368 11.116044 35.67691 15.563961 35.67691 C 17.428544 35.67691 19.688961 35.20816 22.340003 34.275868 L 22.340003 38.999827 C 20.157711 39.911285 17.725419 40.36441 15.037919 40.36441 C 11.173336 40.36441 8.215002 39.192535 6.168127 36.848785 C 4.121252 34.505035 3.100418 31.140451 3.100418 26.755034 C 3.100418 23.994618 3.600418 21.572742 4.605627 19.494617 C 5.610835 17.416492 7.058752 15.82795 8.93896 14.718575 C 10.824377 13.6092 13.032711 13.057117 15.563961 13.057117 C 18.142086 13.057117 20.735836 13.676909 23.340003 14.926909 L 21.522295 19.505034 C 20.527503 19.031076 19.532711 18.619617 18.527503 18.270659 C 17.517086 17.916492 16.532711 17.744617 15.563961 17.744617 Z M 44.246254 39.999827 L 42.324379 33.67691 L 32.636879 33.67691 L 30.709795 39.999827 L 24.642086 39.999827 L 34.017087 13.32795 L 40.902504 13.32795 L 50.313963 39.999827 Z M 40.975421 28.952951 C 39.199379 23.223784 38.194171 19.984201 37.970212 19.234201 C 37.746254 18.4842 37.584796 17.89045 37.491046 17.45295 C 37.090004 19.005034 35.94417 22.838367 34.053545 28.952951 Z M 53.652505 39.999827 L 53.652505 13.437325 L 59.287922 13.437325 L 59.287922 35.348785 L 70.058756 35.348785 L 70.058756 39.999827 Z M 74.67334 39.999827 L 74.67334 13.437325 L 80.303548 13.437325 L 80.303548 35.348785 L 91.079591 35.348785 L 91.079591 39.999827 Z M 110.985842 39.999827 L 95.688966 39.999827 L 95.688966 13.437325 L 110.985842 13.437325 L 110.985842 18.051909 L 101.324383 18.051909 L 101.324383 23.885243 L 110.313967 23.885243 L 110.313967 28.499826 L 101.324383 28.499826 L 101.324383 35.348785 L 110.985842 35.348785 Z M 122.157718 25.228993 L 123.975426 25.228993 C 125.756676 25.228993 127.069176 24.932118 127.918135 24.338368 C 128.767093 23.744617 129.188968 22.812326 129.188968 21.541492 C 129.188968 20.281076 128.756676 19.385242 127.892093 18.848784 C 127.022301 18.317534 125.68376 18.051909 123.866051 18.051909 L 122.157718 18.051909 Z M 122.157718 29.807118 L 122.157718 39.999827 L 116.527509 39.999827 L 116.527509 13.437325 L 124.267093 13.437325 C 127.876468 13.437325 130.548343 14.093575 132.27751 15.406075 C 134.011885 16.723784 134.876468 18.718576 134.876468 21.395659 C 134.876468 22.958159 134.444177 24.348784 133.584802 25.562326 C 132.725427 26.781076 131.506677 27.734201 129.93376 28.426909 C 133.93376 34.39566 136.537927 38.255035 137.74626 39.999827 L 131.49626 39.999827 L 125.157718 29.807118 Z M 152.334803 39.999827 L 145.938969 19.161284 L 145.772303 19.161284 C 146.001469 23.400867 146.116053 26.228993 146.116053 27.645659 L 146.116053 39.999827 L 141.084802 39.999827 L 141.084802 13.437325 L 148.751469 13.437325 L 155.037928 33.749826 L 155.147303 33.749826 L 161.81397 13.437325 L 169.485846 13.437325 L 169.485846 39.999827 L 164.230637 39.999827 L 164.230637 27.426909 C 164.230637 26.833159 164.241054 26.150868 164.261887 25.374826 C 164.277512 24.598784 164.360845 22.541492 164.506679 19.197742 L 164.340012 19.197742 L 157.491053 39.999827 Z M 197.782723 13.437325 L 197.782723 30.624826 C 197.782723 32.588368 197.345222 34.307118 196.465014 35.786285 C 195.590014 37.260243 194.319181 38.39566 192.662931 39.182118 C 191.001472 39.968577 189.03793 40.36441 186.772305 40.36441 C 183.360847 40.36441 180.704596 39.48941 178.813971 37.73941 C 176.928555 35.98941 175.980638 33.593576 175.980638 30.55191 L 175.980638 13.437325 L 181.595221 13.437325 L 181.595221 29.697743 C 181.595221 31.744618 182.00668 33.244618 182.829597 34.202951 C 183.652513 35.161285 185.017097 35.640452 186.918138 35.640452 C 188.761889 35.640452 190.095222 35.156077 190.923347 34.192535 C 191.75668 33.234201 192.168139 31.718576 192.168139 29.661285 L 192.168139 13.437325 Z M 197.782723 13.437325 "
        stroke="#37402a" stroke-width="2.791148" stroke-opacity="1" stroke-miterlimit="4" />
    <g fill="#daebc0" fill-opacity="1">
        <g transform="translate(-0.00890744, 34.297005)">
            <g>
                <path
                    d="M 10.96875 -16.6875 C 9.375 -16.6875 8.140625 -16.085938 7.265625 -14.890625 C 6.398438 -13.703125 5.96875 -12.039062 5.96875 -9.90625 C 5.96875 -5.46875 7.632812 -3.25 10.96875 -3.25 C 12.363281 -3.25 14.054688 -3.597656 16.046875 -4.296875 L 16.046875 -0.75 C 14.410156 -0.0703125 12.585938 0.265625 10.578125 0.265625 C 7.679688 0.265625 5.460938 -0.609375 3.921875 -2.359375 C 2.390625 -4.117188 1.625 -6.644531 1.625 -9.9375 C 1.625 -12.007812 2 -13.820312 2.75 -15.375 C 3.507812 -16.9375 4.59375 -18.128906 6 -18.953125 C 7.414062 -19.785156 9.070312 -20.203125 10.96875 -20.203125 C 12.90625 -20.203125 14.847656 -19.734375 16.796875 -18.796875 L 15.4375 -15.375 C 14.695312 -15.726562 13.945312 -16.035156 13.1875 -16.296875 C 12.4375 -16.554688 11.695312 -16.6875 10.96875 -16.6875 Z M 10.96875 -16.6875 " />
            </g>
        </g>
    </g>
    <g fill="#daebc0" fill-opacity="1">
        <g transform="translate(17.770666, 34.297005)">
            <g>
                <path
                    d="M 14.703125 0 L 13.265625 -4.734375 L 6 -4.734375 L 4.546875 0 L 0 0 L 7.03125 -20 L 12.203125 -20 L 19.25 0 Z M 12.25 -8.28125 C 10.914062 -12.582031 10.164062 -15.015625 10 -15.578125 C 9.832031 -16.140625 9.710938 -16.582031 9.640625 -16.90625 C 9.335938 -15.75 8.476562 -12.875 7.0625 -8.28125 Z M 12.25 -8.28125 " />
            </g>
        </g>
    </g>
    <g fill="#daebc0" fill-opacity="1">
        <g transform="translate(37.021653, 34.297005)">
            <g>
                <path
                    d="M 2.5 0 L 2.5 -19.921875 L 6.734375 -19.921875 L 6.734375 -3.484375 L 14.8125 -3.484375 L 14.8125 0 Z M 2.5 0 " />
            </g>
        </g>
    </g>
    <g fill="#daebc0" fill-opacity="1">
        <g transform="translate(52.784847, 34.297005)">
            <g>
                <path
                    d="M 2.5 0 L 2.5 -19.921875 L 6.734375 -19.921875 L 6.734375 -3.484375 L 14.8125 -3.484375 L 14.8125 0 Z M 2.5 0 " />
            </g>
        </g>
    </g>
    <g fill="#daebc0" fill-opacity="1">
        <g transform="translate(68.548041, 34.297005)">
            <g>
                <path
                    d="M 13.984375 0 L 2.5 0 L 2.5 -19.921875 L 13.984375 -19.921875 L 13.984375 -16.453125 L 6.734375 -16.453125 L 6.734375 -12.09375 L 13.46875 -12.09375 L 13.46875 -8.625 L 6.734375 -8.625 L 6.734375 -3.484375 L 13.984375 -3.484375 Z M 13.984375 0 " />
            </g>
        </g>
    </g>
    <g fill="#daebc0" fill-opacity="1">
        <g transform="translate(84.174993, 34.297005)">
            <g>
                <path
                    d="M 6.734375 -11.078125 L 8.09375 -11.078125 C 9.425781 -11.078125 10.410156 -11.296875 11.046875 -11.734375 C 11.679688 -12.179688 12 -12.882812 12 -13.84375 C 12 -14.789062 11.675781 -15.460938 11.03125 -15.859375 C 10.382812 -16.253906 9.378906 -16.453125 8.015625 -16.453125 L 6.734375 -16.453125 Z M 6.734375 -7.640625 L 6.734375 0 L 2.5 0 L 2.5 -19.921875 L 8.3125 -19.921875 C 11.019531 -19.921875 13.019531 -19.425781 14.3125 -18.4375 C 15.613281 -17.457031 16.265625 -15.960938 16.265625 -13.953125 C 16.265625 -12.785156 15.941406 -11.742188 15.296875 -10.828125 C 14.648438 -9.910156 13.738281 -9.195312 12.5625 -8.6875 C 15.5625 -4.207031 17.515625 -1.3125 18.421875 0 L 13.734375 0 L 8.984375 -7.640625 Z M 6.734375 -7.640625 " />
            </g>
        </g>
    </g>
    <g fill="#daebc0" fill-opacity="1">
        <g transform="translate(102.594898, 34.297005)">
            <g>
                <path
                    d="M 10.9375 0 L 6.140625 -15.625 L 6.015625 -15.625 C 6.191406 -12.445312 6.28125 -10.328125 6.28125 -9.265625 L 6.28125 0 L 2.5 0 L 2.5 -19.921875 L 8.25 -19.921875 L 12.96875 -4.6875 L 13.046875 -4.6875 L 18.046875 -19.921875 L 23.8125 -19.921875 L 23.8125 0 L 19.859375 0 L 19.859375 -9.421875 C 19.859375 -9.867188 19.863281 -10.382812 19.875 -10.96875 C 19.894531 -11.550781 19.960938 -13.097656 20.078125 -15.609375 L 19.953125 -15.609375 L 14.8125 0 Z M 10.9375 0 " />
            </g>
        </g>
    </g>
    <g fill="#daebc0" fill-opacity="1">
        <g transform="translate(128.903216, 34.297005)">
            <g>
                <path
                    d="M 18.71875 -19.921875 L 18.71875 -7.03125 C 18.71875 -5.5625 18.390625 -4.269531 17.734375 -3.15625 C 17.078125 -2.050781 16.125 -1.203125 14.875 -0.609375 C 13.632812 -0.0234375 12.164062 0.265625 10.46875 0.265625 C 7.90625 0.265625 5.914062 -0.390625 4.5 -1.703125 C 3.082031 -3.015625 2.375 -4.804688 2.375 -7.078125 L 2.375 -19.921875 L 6.578125 -19.921875 L 6.578125 -7.71875 C 6.578125 -6.1875 6.882812 -5.0625 7.5 -4.34375 C 8.125 -3.625 9.148438 -3.265625 10.578125 -3.265625 C 11.953125 -3.265625 12.953125 -3.625 13.578125 -4.34375 C 14.203125 -5.070312 14.515625 -6.207031 14.515625 -7.75 L 14.515625 -19.921875 Z M 18.71875 -19.921875 " />
            </g>
        </g>
    </g>
</svg>